# File created by Blade
# Date/Time:  Tue Jan 27 20:08:00 2015
#---------------------------------------------------------
:version 1.10
:name HOM
:units
  mass 1.0
  length 1.000000
  angle deg
:documentation
     Acclaim Skeleton File
:root
   axis xyz
   order TX TY TZ RX RY RZ
   position 0.000000 0.000000 0.000000
   orientation 0 0 0
:bonedata
   begin
      id 1
      name Spine_dum
      direction 0.000000 1.000000 0.000000
      length 6.116652
      axis 0.0 0.0 0.0 xyz
   end
   begin
      id 2
      name LeftUpLeg_dum
      direction 1.000000 0.000000 0.000000
      length 4.711765
      axis 0.0 0.0 0.0 xyz
   end
   begin
      id 3
      name RightUpLeg_dum
      direction -1.000000 0.000000 0.000000
      length 4.711765
      axis 0.0 0.0 0.0 xyz
   end
   begin
      id 4
      name Spine
      direction 0.000000 1.000000 0.000000
      length 0.000000
      axis 0.0 0.0 0.0 xyz
      dof rx ry rz
   end
   begin
      id 5
      name Spine_dum1
      direction 0.000000 1.000000 0.000000
      length 15.225563
      axis 0.0 0.0 0.0 xyz
   end
   begin
      id 6
      name Spine_dum2
      direction 0.000000 1.000000 0.000000
      length 8.977654
      axis 0.0 0.0 0.0 xyz
   end
   begin
      id 7
      name Spine_dum3
      direction 0.000000 1.000000 0.000000
      length 8.977654
      axis 0.0 0.0 0.0 xyz
   end
   begin
      id 8
      name Head
      direction 0.000000 1.000000 0.000000
      length 4.527550
      axis 0.0 0.0 0.0 xyz
      dof rx ry rz
   end
   begin
      id 9
      name LeftShoulder
      direction 1.000000 0.000000 0.000000
      length 7.110130
      axis 0.0 0.0 -90.0 xyz
      dof rx ry rz
   end
   begin
      id 10
      name LeftArm
      direction 1.000000 0.000000 0.000000
      length 10.398341
      axis 0.0 0.0 -90.0 xyz
      dof rx ry rz
   end
   begin
      id 11
      name LeftForeArm
      direction 1.000000 0.000000 0.000000
      length 8.888997
      axis 0.0 0.0 -90.0 xyz
      dof ry rz rx
   end
   begin
      id 12
      name LeftHand
      direction 0.000000 0.000000 0.000000
      length 0.000000
      axis 0.0 0.0 -90.0 xyz
      dof rx ry rz
   end
   begin
      id 13
      name LeftHand_dum1
      direction 0.000000 0.000000 0.000000
      length 0.000000
      axis 0.0 0.0 -90.0 xyz
   end
   begin
      id 14
      name LeftHand_dum2
      direction 1.000000 0.000000 0.000000
      length 3.937000
      axis 0.0 0.0 -90.0 xyz
   end
   begin
      id 15
      name LeftHandThumb1
      direction 0.000000 0.000000 1.000000
      length 3.937000
      axis 0.0 0.0 -90.0 xyz
      dof rx rz ry
   end
   begin
      id 16
      name RightShoulder
      direction -1.000000 0.000000 0.000000
      length 7.110130
      axis 0.0 0.0 90.0 xyz
      dof rx ry rz
   end
   begin
      id 17
      name RightArm
      direction -1.000000 0.000000 0.000000
      length 10.398341
      axis 0.0 0.0 90.0 xyz
      dof rx ry rz
   end
   begin
      id 18
      name RightForeArm
      direction -1.000000 0.000000 0.000000
      length 8.888997
      axis 0.0 0.0 90.0 xyz
      dof ry rz rx
   end
   begin
      id 19
      name RightHand
      direction 0.000000 0.000000 0.000000
      length 0.000000
      axis 0.0 0.0 90.0 xyz
      dof rx ry rz
   end
   begin
      id 20
      name RightHand_dum1
      direction 0.000000 0.000000 0.000000
      length 0.000000
      axis 0.0 0.0 90.0 xyz
   end
   begin
      id 21
      name RightHand_dum2
      direction -1.000000 0.000000 0.000000
      length 3.937000
      axis 0.0 0.0 90.0 xyz
   end
   begin
      id 22
      name RightHandThumb1
      direction 0.000000 0.000000 1.000000
      length 3.937000
      axis 0.0 0.0 90.0 xyz
      dof rx rz ry
   end
   begin
      id 23
      name LeftUpLeg
      direction 0.000000 -1.000000 0.000000
      length 15.510451
      axis 0.0 0.0 0.0 xyz
      dof rx ry rz
   end
   begin
      id 24
      name LeftLeg
      direction 0.000000 -1.000000 0.000000
      length 14.858061
      axis 0.0 0.0 0.0 xyz
      dof rx ry rz
   end
   begin
      id 25
      name LeftFoot
      direction 0.000000 -0.258819 0.965926
      length 5.128852
      axis 15.0 0.0 0.0 xyz
      dof rx ry rz
   end
   begin
      id 26
      name LeftToeBase
      direction 0.000000 0.000000 1.000000
      length 2.952750
      axis 0.0 0.0 0.0 xyz
      dof rx ry rz
   end
   begin
      id 27
      name RightUpLeg
      direction 0.000000 -1.000000 0.000000
      length 15.510451
      axis 0.0 0.0 0.0 xyz
      dof rx ry rz
   end
   begin
      id 28
      name RightLeg
      direction 0.000000 -1.000000 0.000000
      length 14.858061
      axis 0.0 0.0 0.0 xyz
      dof rx ry rz
   end
   begin
      id 29
      name RightFoot
      direction 0.000000 -0.258819 0.965926
      length 5.128852
      axis 15.0 0.0 0.0 xyz
      dof rx ry rz
   end
   begin
      id 30
      name RightToeBase
      direction 0.000000 0.000000 1.000000
      length 2.952750
      axis 0.0 0.0 0.0 xyz
      dof rx ry rz
   end
:hierarchy
   begin
      root Spine_dum LeftUpLeg_dum RightUpLeg_dum
      Spine_dum Spine
      LeftUpLeg_dum LeftUpLeg
      RightUpLeg_dum RightUpLeg
      Spine Spine_dum1 Spine_dum2 Spine_dum3
      Spine_dum1 Head
      Spine_dum2 LeftShoulder
      Spine_dum3 RightShoulder
      LeftShoulder LeftArm
      LeftArm LeftForeArm
      LeftForeArm LeftHand
      LeftHand LeftHand_dum1 LeftHand_dum2
      LeftHand_dum1 LeftHandThumb1
      RightShoulder RightArm
      RightArm RightForeArm
      RightForeArm RightHand
      RightHand RightHand_dum1 RightHand_dum2
      RightHand_dum1 RightHandThumb1
      LeftUpLeg LeftLeg
      LeftLeg LeftFoot
      LeftFoot LeftToeBase
      RightUpLeg RightLeg
      RightLeg RightFoot
      RightFoot RightToeBase
   end

# File created by Blade
# Date/Time:  Tue Jan 27 20:07:51 2015
# Frame Rate: 120.000 fps
#------------------------------------------------------
:FULLY-SPECIFIED
:DEGREES
769
root 7.042747 32.280091 -4.408084 -4.834506 42.079645 0.592296
Spine 6.082172 -7.226247 -7.012952
Head 16.204515 -18.042375 7.510077
LeftShoulder -8.749254 -11.725888 31.271540
LeftArm 3.169634 1.608826 -82.318820
LeftForeArm -9.576289 -0.000000 107.434467
LeftHand 12.240435 -0.000000 12.594492
LeftHandThumb1 -26.253704 0.000000 33.147579
RightShoulder -20.459027 -17.786264 -20.995573
RightArm 9.061473 -22.746106 93.169516
RightForeArm -15.728303 -0.000000 24.265985
RightHand 16.305088 -0.000000 1.004777
RightHandThumb1 -24.326973 -0.000000 -32.862282
LeftUpLeg 10.730349 -13.357244 -8.799763
LeftLeg -1.254945 -0.000000 0.000000
LeftFoot -11.400248 7.792175 -15.972927
LeftToeBase 20.030062 -0.000000 -0.000000
RightUpLeg -40.083074 -5.653114 25.847090
RightLeg 72.952436 -0.000000 -0.000000
RightFoot 30.156776 -26.023242 24.910565
RightToeBase 19.356711 -0.000000 -0.000000
770
root 7.050364 32.281787 -4.391939 -4.890924 41.950350 0.544393
Spine 6.002747 -7.162420 -7.013004
Head 16.319877 -18.043490 7.498957
LeftShoulder -8.756280 -11.756758 31.287921
LeftArm 3.129707 1.664231 -82.367719
LeftForeArm -9.471889 -0.000000 107.383083
LeftHand 12.252677 -0.000000 12.706628
LeftHandThumb1 -26.253704 0.000000 33.147579
RightShoulder -20.455951 -17.804914 -20.973942
RightArm 9.116099 -22.660257 93.186534
RightForeArm -15.877563 -0.000000 24.388964
RightHand 16.531722 -0.000000 1.645781
RightHandThumb1 -24.326973 -0.000000 -32.862282
LeftUpLeg 10.810294 -13.197497 -8.749506
LeftLeg -1.301251 -0.000000 0.000000
LeftFoot -11.416148 7.734162 -16.200764
LeftToeBase 19.988596 -0.000000 -0.000000
RightUpLeg -40.046789 -6.491949 26.353395
RightLeg 73.326757 -0.000000 -0.000000
RightFoot 29.958176 -26.122683 25.552714
RightToeBase 19.361283 -0.000000 -0.000000
771
root 7.057440 32.283771 -4.375720 -4.948993 41.827646 0.506145
Spine 5.936042 -7.099844 -7.020333
Head 16.409661 -18.073587 7.483574
LeftShoulder -8.746560 -11.746910 31.280178
LeftArm 3.133267 1.680231 -82.384360
LeftForeArm -9.367551 -0.000000 107.337286
LeftHand 12.192356 -0.000000 12.659690
LeftHandThumb1 -26.253704 0.000000 33.147579
RightShoulder -20.469052 -17.812903 -20.959858
RightArm 9.160836 -22.610082 93.215057
RightForeArm -16.027450 -0.000000 24.521887
RightHand 16.562687 -0.000000 1.484689
RightHandThumb1 -24.326973 -0.000000 -32.862282
LeftUpLeg 10.889648 -13.015612 -8.697679
LeftLeg -1.319104 -0.000000 0.000000
LeftFoot -11.500473 7.687811 -16.250479
LeftToeBase 20.300151 -0.000000 -0.000000
RightUpLeg -39.985896 -7.297088 26.835693
RightLeg 73.631411 -0.000000 -0.000000
RightFoot 30.128546 -26.045811 25.886062
RightToeBase 17.394699 -0.000000 -0.000000
772
root 7.063435 32.285597 -4.359626 -5.007889 41.708822 0.475968
Spine 5.890023 -7.042723 -7.043565
Head 16.459359 -18.083889 7.487358
LeftShoulder -8.749611 -11.786368 31.300510
LeftArm 3.086883 1.701168 -82.386216
LeftForeArm -9.303046 -0.000000 107.282946
LeftHand 12.180748 0.000000 12.625596
LeftHandThumb1 -26.253704 0.000000 33.147579
RightShoulder -20.496434 -17.788947 -20.922533
RightArm 9.232125 -22.643723 93.203634
RightForeArm -15.758510 -0.000000 24.554634
RightHand 16.321528 -0.000000 0.135586
RightHandThumb1 -24.326973 -0.000000 -32.862282
LeftUpLeg 10.969221 -12.793984 -8.641141
LeftLeg -1.350222 -0.000000 0.000000
LeftFoot -11.550081 7.606054 -16.356232
LeftToeBase 19.722202 -0.000000 -0.000000
RightUpLeg -39.961579 -8.110866 27.332838
RightLeg 73.991302 -0.000000 -0.000000
RightFoot 30.285001 -25.991682 25.239595
RightToeBase 16.498975 -0.000000 -0.000000
773
root 7.066629 32.287195 -4.343575 -5.065480 41.589856 0.434392
Spine 5.837657 -6.960260 -7.066034
Head 16.496943 -18.140897 7.519822
LeftShoulder -8.701965 -11.788684 31.315113
LeftArm 3.069969 1.713015 -82.363108
LeftForeArm -9.275360 -0.000000 107.260891
LeftHand 12.172221 -0.000000 12.635638
LeftHandThumb1 -26.253704 0.000000 33.147579
RightShoulder -20.534152 -17.790330 -20.873711
RightArm 9.292005 -22.685858 93.188405
RightForeArm -15.730456 0.000000 24.659407
RightHand 16.316945 -0.000000 0.530451
RightHandThumb1 -24.326973 -0.000000 -32.862282
LeftUpLeg 11.034459 -12.631771 -8.579745
LeftLeg -1.367382 -0.000000 0.000000
LeftFoot -11.605789 7.492998 -16.454285
LeftToeBase 19.852200 -0.000000 -0.000000
RightUpLeg -39.949458 -8.879843 27.825638
RightLeg 74.340934 -0.000000 -0.000000
RightFoot 30.296486 -26.083185 24.586303
RightToeBase 15.642558 -0.000000 -0.000000
774
root 7.073245 32.287544 -4.328268 -5.118047 41.453046 0.417157
Spine 5.797510 -6.872111 -7.095377
Head 16.509395 -18.177469 7.545421
LeftShoulder -8.658550 -11.774157 31.334361
LeftArm 3.035816 1.710613 -82.334794
LeftForeArm -9.277776 -0.000000 107.266591
LeftHand 12.147837 0.000000 12.607072
LeftHandThumb1 -26.253704 0.000000 33.147579
RightShoulder -20.520220 -17.705760 -20.880391
RightArm 9.227796 -22.522307 93.232862
RightForeArm -15.492837 0.000000 24.781916
RightHand 16.505191 -0.000000 1.335451
RightHandThumb1 -24.326973 -0.000000 -32.862282
LeftUpLeg 11.117694 -12.487951 -8.555421
LeftLeg -1.387487 -0.000000 0.000000
LeftFoot -11.663792 7.435540 -16.563391
LeftToeBase 19.977969 -0.000000 -0.000000
RightUpLeg -39.925675 -9.575635 28.249312
RightLeg 74.713110 -0.000000 -0.000000
RightFoot 30.307934 -26.177322 24.272096
RightToeBase 13.666658 -0.000000 -0.000000
775
root 7.076593 32.287515 -4.313896 -5.231565 41.263287 0.399549
Spine 5.854778 -6.727051 -7.136216
Head 16.470063 -18.179542 7.596071
LeftShoulder -8.609798 -11.758065 31.361245
LeftArm 3.017199 1.695536 -82.288871
LeftForeArm -9.267556 -0.000000 107.303357
LeftHand 12.102037 -0.000000 12.705763
LeftHandThumb1 -26.253704 0.000000 33.147579
RightShoulder -20.510151 -17.659892 -20.866574
RightArm 9.259280 -22.508685 93.274017
RightForeArm -15.624123 -0.000000 24.856760
RightHand 16.677042 -0.000000 1.550727
RightHandThumb1 -24.326973 -0.000000 -32.862282
LeftUpLeg 11.257148 -12.310525 -8.540522
LeftLeg -1.405277 -0.000000 0.000000
LeftFoot -11.722714 7.404182 -16.650444
LeftToeBase 20.327748 -0.000000 -0.000000
RightUpLeg -39.846135 -10.190013 28.658059
RightLeg 75.100681 -0.000000 -0.000000
RightFoot 30.473882 -26.477792 24.083120
RightToeBase 7.417699 -0.000000 -0.000000
776
root 7.083794 32.288466 -4.295038 -5.323723 41.127047 0.358457
Spine 5.845544 -6.691325 -7.143046
Head 16.463286 -18.143563 7.592029
LeftShoulder -8.605932 -11.720517 31.371798
LeftArm 2.945501 1.703654 -82.227554
LeftForeArm -9.319651 -0.000000 107.359389
LeftHand 12.118162 -0.000000 12.749775
LeftHandThumb1 -26.253704 0.000000 33.147579
RightShoulder -20.481220 -17.610145 -20.871535
RightArm 9.291840 -22.586680 93.279436
RightForeArm -15.718948 0.000000 24.899403
RightHand 16.679479 -0.000000 1.362509
RightHandThumb1 -24.326973 -0.000000 -32.862282
LeftUpLeg 11.367931 -12.215439 -8.513335
LeftLeg -1.416457 -0.000000 0.000000
LeftFoot -11.798527 7.419558 -16.718341
LeftToeBase 20.205268 -0.000000 -0.000000
RightUpLeg -39.707607 -10.765705 29.027265
RightLeg 75.150314 -0.000000 -0.000000
RightFoot 30.414520 -25.790164 24.583519
RightToeBase 18.333757 -0.000000 -0.000000
777
root 7.089851 32.288315 -4.274891 -5.397019 40.992404 0.337653
Spine 5.829339 -6.637316 -7.179317
Head 16.430487 -18.134396 7.615324
LeftShoulder -8.595967 -11.617832 31.394659
LeftArm 2.937631 1.711195 -82.166493
LeftForeArm -9.394777 -0.000000 107.423526
LeftHand 12.142049 -0.000000 12.722674
LeftHandThumb1 -26.253704 0.000000 33.147579
RightShoulder -20.500920 -17.645521 -20.831967
RightArm 9.424343 -22.664173 93.227551
RightForeArm -15.628401 0.000000 24.943935
RightHand 16.655464 -0.000000 1.687411
RightHandThumb1 -24.326973 -0.000000 -32.862282
LeftUpLeg 11.474406 -12.116479 -8.496716
LeftLeg -1.429861 -0.000000 0.000000
LeftFoot -11.839833 7.440037 -16.719133
LeftToeBase 19.992737 -0.000000 -0.000000
RightUpLeg -39.633597 -11.288993 29.383573
RightLeg 75.411483 -0.000000 -0.000000
RightFoot 30.768984 -25.535693 24.283250
RightToeBase 17.781100 -0.000000 -0.000000
778
root 7.094818 32.287469 -4.256375 -5.456395 40.822736 0.321037
Spine 5.799546 -6.564459 -7.211345
Head 16.390316 -18.117683 7.648565
LeftShoulder -8.596182 -11.508148 31.415654
LeftArm 2.921255 1.709638 -82.109594
LeftForeArm -9.445892 -0.000000 107.502297
LeftHand 12.139678 -0.000000 12.639523
LeftHandThumb1 -26.253704 0.000000 33.147579
RightShoulder -20.496326 -17.608362 -20.824681
RightArm 9.477383 -22.807359 93.197435
RightForeArm -15.489704 0.000000 24.985430
RightHand 16.536153 0.000000 1.478835
RightHandThumb1 -24.326973 -0.000000 -32.862282
LeftUpLeg 11.571119 -12.005197 -8.481358
LeftLeg -1.447504 -0.000000 0.000000
LeftFoot -11.921541 7.478473 -16.763507
LeftToeBase 20.051659 -0.000000 -0.000000
RightUpLeg -39.552800 -11.718075 29.716719
RightLeg 75.649061 -0.000000 -0.000000
RightFoot 31.038421 -25.422886 23.913061
RightToeBase 17.606500 -0.000000 -0.000000
779
root 7.100383 32.286135 -4.239062 -5.503943 40.666841 0.314656
Spine 5.767590 -6.509968 -7.250381
Head 16.353253 -18.089510 7.679181
LeftShoulder -8.615773 -11.423550 31.446676
LeftArm 2.878399 1.729079 -82.066657
LeftForeArm -9.526312 -0.000000 107.580236
LeftHand 12.143497 -0.000000 12.538018
LeftHandThumb1 -26.253704 0.000000 33.147579
RightShoulder -20.466635 -17.538223 -20.852378
RightArm 9.470314 -22.946132 93.204694
RightForeArm -15.556954 0.000000 25.018344
RightHand 16.668852 0.000000 1.891699
RightHandThumb1 -24.326973 -0.000000 -32.862282
LeftUpLeg 11.660804 -11.946170 -8.481254
LeftLeg -1.453702 -0.000000 0.000000
LeftFoot -11.957655 7.522057 -16.749317
LeftToeBase 19.880763 -0.000000 -0.000000
RightUpLeg -39.486527 -12.108274 29.997110
RightLeg 75.898509 -0.000000 -0.000000
RightFoot 31.120215 -25.187834 23.849585
RightToeBase 16.885753 -0.000000 -0.000000
780
root 7.104823 32.285077 -4.221421 -5.550940 40.527811 0.302916
Spine 5.733491 -6.478672 -7.287417
Head 16.335941 -18.054660 7.712206
LeftShoulder -8.659658 -11.320715 31.474682
LeftArm 2.865459 1.761271 -82.032157
LeftForeArm -9.572772 -0.000000 107.639647
LeftHand 12.152545 -0.000000 12.487942
LeftHandThumb1 -26.253704 0.000000 33.147579
RightShoulder -20.426708 -17.518956 -20.858019
RightArm 9.505298 -23.057602 93.196448
RightForeArm -15.635554 -0.000000 25.072320
RightHand 16.669775 -0.000000 1.890385
RightHandThumb1 -24.326973 -0.000000 -32.862282
LeftUpLeg 11.742562 -11.895149 -8.474322
LeftLeg -1.472202 -0.000000 0.000000
LeftFoot -12.039562 7.583017 -16.845131
LeftToeBase 19.967477 -0.000000 -0.000000
RightUpLeg -39.413365 -12.435655 30.251100
RightLeg 76.101534 -0.000000 -0.000000
RightFoot 31.094315 -25.112768 24.113194
RightToeBase 17.338898 -0.000000 -0.000000
